<svg width="32" height="32" viewBox="0 0 32 32" fill="none" xmlns="http://www.w3.org/2000/svg">
<path d="M16 5.62964C17.3752 5.62964 18.6941 6.17593 19.6665 7.14834C20.6389 8.12075 21.1852 9.43962 21.1852 10.8148C21.1852 12.19 20.6389 13.5089 19.6665 14.4813C18.6941 15.4537 17.3752 16 16 16C14.6248 16 13.3059 15.4537 12.3335 14.4813C11.3611 13.5089 10.8148 12.19 10.8148 10.8148C10.8148 9.43962 11.3611 8.12075 12.3335 7.14834C13.3059 6.17593 14.6248 5.62964 16 5.62964ZM16 18.5926C21.7296 18.5926 26.3704 20.913 26.3704 23.7778V25.3704C26.3704 25.9226 25.9226 26.3704 25.3704 26.3704H6.62964C6.07735 26.3704 5.62964 25.9226 5.62964 25.3704V23.7778C5.62964 20.913 10.2704 18.5926 16 18.5926Z" fill="#234A7C" stroke="#234A7C" stroke-width="2"/>
</svg>
