<svg width="24" height="24" viewBox="0 0 24 24" fill="none" xmlns="http://www.w3.org/2000/svg">
<path d="M11.581 3.86035C12.6048 3.86035 13.5867 4.26706 14.3106 4.99101C15.0346 5.71496 15.4413 6.69685 15.4413 7.72067C15.4413 8.74449 15.0346 9.72638 14.3106 10.4503C13.5867 11.1743 12.6048 11.581 11.581 11.581C10.5572 11.581 9.57528 11.1743 8.85133 10.4503C8.12738 9.72638 7.72067 8.74449 7.72067 7.72067C7.72067 6.69685 8.12738 5.71496 8.85133 4.99101C9.57528 4.26706 10.5572 3.86035 11.581 3.86035ZM11.581 13.5111C15.8466 13.5111 19.3016 15.2386 19.3016 17.3715V18.3365C19.3016 18.8695 18.8695 19.3016 18.3365 19.3016H4.82543C4.29243 19.3016 3.86035 18.8695 3.86035 18.3365V17.3715C3.86035 15.2386 7.31534 13.5111 11.581 13.5111Z" stroke="#555555"/>
</svg>
