<svg width="32" height="32" viewBox="0 0 32 32" fill="none" xmlns="http://www.w3.org/2000/svg">
<path d="M16.0002 5.62964C17.3754 5.62964 18.6943 6.17593 19.6667 7.14834C20.6391 8.12075 21.1854 9.43962 21.1854 10.8148C21.1854 12.19 20.6391 13.5089 19.6667 14.4813C18.6943 15.4537 17.3754 16 16.0002 16C14.6251 16 13.3062 15.4537 12.3338 14.4813C11.3614 13.5089 10.8151 12.19 10.8151 10.8148C10.8151 9.43962 11.3614 8.12075 12.3338 7.14834C13.3062 6.17593 14.6251 5.62964 16.0002 5.62964ZM16.0002 18.5926C21.7299 18.5926 26.3706 20.913 26.3706 23.7778V25.3704C26.3706 25.9226 25.9229 26.3704 25.3706 26.3704H6.62988C6.0776 26.3704 5.62988 25.9226 5.62988 25.3704V23.7778C5.62988 20.913 10.2706 18.5926 16.0002 18.5926Z" stroke="#C6C6C6" stroke-width="1.6"/>
</svg>
