<svg width="24" height="24" viewBox="0 0 24 24" fill="none" xmlns="http://www.w3.org/2000/svg">
<path d="M10.2888 3.85996L1.8188 18C1.64417 18.3024 1.55177 18.6453 1.55079 18.9945C1.54981 19.3437 1.64029 19.6871 1.81323 19.9905C1.98616 20.2939 2.23553 20.5467 2.53651 20.7238C2.83749 20.9009 3.1796 20.9961 3.5288 21H20.4688C20.818 20.9961 21.1601 20.9009 21.4611 20.7238C21.7621 20.5467 22.0114 20.2939 22.1844 19.9905C22.3573 19.6871 22.4478 19.3437 22.4468 18.9945C22.4458 18.6453 22.3534 18.3024 22.1788 18L13.7088 3.85996C13.5305 3.56607 13.2795 3.32308 12.98 3.15444C12.6805 2.98581 12.3425 2.89722 11.9988 2.89722C11.6551 2.89722 11.3171 2.98581 11.0176 3.15444C10.7181 3.32308 10.4671 3.56607 10.2888 3.85996Z" fill="#A90000"/>
<path d="M12 9V13.5" stroke="white" stroke-width="1.5" stroke-linecap="round" stroke-linejoin="round"/>
<path d="M12 16.5H12.01" stroke="white" stroke-width="1.5" stroke-linecap="round" stroke-linejoin="round"/>
</svg>
