<svg width="24" height="24" viewBox="0 0 24 24" fill="none" xmlns="http://www.w3.org/2000/svg">
<path d="M11.9424 3.55237C13.0032 3.55237 14.0207 3.9738 14.7708 4.72394C15.521 5.47409 15.9424 6.4915 15.9424 7.55237C15.9424 8.61323 15.521 9.63065 14.7708 10.3808C14.0207 11.1309 13.0032 11.5524 11.9424 11.5524C10.8815 11.5524 9.8641 11.1309 9.11396 10.3808C8.36381 9.63065 7.94238 8.61323 7.94238 7.55237C7.94238 6.4915 8.36381 5.47409 9.11396 4.72394C9.8641 3.9738 10.8815 3.55237 11.9424 3.55237ZM11.9424 13.5524C16.3624 13.5524 19.9424 15.3424 19.9424 17.5524V18.6524C19.9424 19.1494 19.5394 19.5524 19.0424 19.5524H4.84238C4.34533 19.5524 3.94238 19.1494 3.94238 18.6524V17.5524C3.94238 15.3424 7.52238 13.5524 11.9424 13.5524Z" stroke="#555555"/>
</svg>
