<svg width="32" height="32" viewBox="0 0 32 32" fill="none" xmlns="http://www.w3.org/2000/svg">
<rect x="2" y="2" width="28" height="28" rx="14" fill="#5A86BF"/>
<path d="M13.3005 18.9097L10.3766 15.9878C10.219 15.8304 10.0053 15.7419 9.78251 15.7419C9.5597 15.7419 9.34601 15.8304 9.18845 15.9878C9.0309 16.1453 8.94238 16.3588 8.94238 16.5815C8.94238 16.6917 8.96411 16.8009 9.00633 16.9027C9.04855 17.0046 9.11044 17.0972 9.18845 17.1751L12.7107 20.6948C13.0393 21.0232 13.5702 21.0232 13.8988 20.6948L22.8139 11.7861C22.9715 11.6286 23.06 11.4151 23.06 11.1924C23.06 10.9698 22.9715 10.7562 22.8139 10.5988C22.6564 10.4414 22.4427 10.3529 22.2199 10.3529C21.9971 10.3529 21.7834 10.4414 21.6258 10.5988L13.3005 18.9097Z" fill="white"/>
</svg>
