<svg width="24" height="24" viewBox="0 0 24 24" fill="none" xmlns="http://www.w3.org/2000/svg">
<path d="M21.5 12H19.389M19.389 12C19.389 13.9598 18.611 15.8389 17.2252 17.2247C15.8394 18.6105 13.9598 19.389 12 19.389M19.389 12C19.389 10.0402 18.611 8.16013 17.2252 6.77433C15.8394 5.38853 13.9598 4.611 12 4.611M12 2.5V4.611M12 4.611C10.0403 4.611 8.16089 5.38848 6.77519 6.77419C5.38948 8.15989 4.611 10.0393 4.611 11.999C4.611 13.9587 5.38948 15.8381 6.77519 17.2238C8.16089 18.6095 10.0403 19.389 12 19.389M2.5 12H4.611M12 21.5V19.389" stroke="white" stroke-miterlimit="10" stroke-linecap="round"/>
<path d="M12.0003 16.2221C13.1201 16.2221 14.1939 15.7773 14.9857 14.9855C15.7775 14.1937 16.2223 13.1198 16.2223 12.0001C16.2223 10.8803 15.7775 9.80645 14.9857 9.01467C14.1939 8.22289 13.1201 7.77808 12.0003 7.77808C10.8806 7.77808 9.80669 8.22289 9.01492 9.01467C8.22314 9.80645 7.77832 10.8803 7.77832 12.0001C7.77832 13.1198 8.22314 14.1937 9.01492 14.9855C9.80669 15.7773 10.8806 16.2221 12.0003 16.2221Z" stroke="white" stroke-miterlimit="10" stroke-linecap="round"/>
</svg>
