<svg width="56" height="56" viewBox="0 0 56 56" fill="none" xmlns="http://www.w3.org/2000/svg">
<path d="M45.2651 38.525V43.9265C45.2672 44.4279 45.16 44.9243 44.9504 45.3837C44.7408 45.8431 44.4333 46.2556 44.0478 46.5946C43.6622 46.9336 43.207 47.1916 42.7113 47.3523C42.2157 47.5129 41.6904 47.5726 41.1693 47.5275C35.388 46.9255 29.8346 45.0322 24.9554 41.9999C20.416 39.2356 16.5673 35.5473 13.6828 31.197C10.5076 26.4998 8.5316 21.152 7.91491 15.5866C7.86796 15.0887 7.9297 14.5869 8.09621 14.1132C8.26272 13.6394 8.53034 13.204 8.88204 12.8348C9.23374 12.4656 9.66181 12.1706 10.139 11.9686C10.6162 11.7666 11.132 11.662 11.6537 11.6616H17.29C18.2018 11.653 19.0857 11.9624 19.7771 12.5322C20.4684 13.1019 20.92 13.8932 21.0476 14.7584C21.2855 16.487 21.7267 18.1843 22.3627 19.8178C22.6155 20.4622 22.6702 21.1626 22.5204 21.8359C22.3705 22.5093 22.0224 23.1273 21.5173 23.6169L19.1312 25.9035C21.8058 30.4111 25.7003 34.1434 30.4039 36.7065L32.79 34.4198C33.3008 33.9358 33.9457 33.6021 34.6483 33.4585C35.3509 33.3149 36.0817 33.3674 36.7542 33.6096C38.4587 34.2192 40.2298 34.642 42.0336 34.87C42.9462 34.9934 43.7797 35.4339 44.3755 36.1078C44.9713 36.7817 45.2879 37.642 45.2651 38.525Z" fill="#2D5F9F"/>
<path d="M31.175 17.035C33.2525 17.4178 35.1617 18.3774 36.6584 19.7909C38.1551 21.2044 39.1711 23.0076 39.5764 24.9696M31.175 9C35.4912 9.45285 39.516 11.2783 42.5886 14.1766C45.6613 17.0749 47.5992 20.8738 48.0841 24.9495" stroke="#2D5F9F" stroke-width="3" stroke-linecap="round" stroke-linejoin="round"/>
</svg>
