<svg width="24" height="24" viewBox="0 0 24 24" fill="none" xmlns="http://www.w3.org/2000/svg">
<path fill-rule="evenodd" clip-rule="evenodd" d="M19.7188 4.28118C20.0937 4.65608 20.0937 5.26392 19.7188 5.63882L5.63882 19.7188C5.26392 20.0937 4.65608 20.0937 4.28118 19.7188C3.90627 19.3439 3.90627 18.7361 4.28118 18.3612L18.3612 4.28118C18.7361 3.90627 19.3439 3.90627 19.7188 4.28118Z" fill="#C6C6C6"/>
<path d="M14 12C14 12.5304 13.7893 13.0391 13.4142 13.4142C13.0391 13.7893 12.5304 14 12 14C11.4696 14 10.9609 13.7893 10.5858 13.4142C10.2107 13.0391 10 12.5304 10 12C10 11.4696 10.2107 10.9609 10.5858 10.5858C10.9609 10.2107 11.4696 10 12 10C12.5304 10 13.0391 10.2107 13.4142 10.5858C13.7893 10.9609 14 11.4696 14 12Z" fill="#C6C6C6"/>
<path d="M2 12C2 12 5.75 6 12 6C18.25 6 22 12 22 12C22 12 18.25 18 12 18C5.75 18 2 12 2 12ZM12 15.8182C13.1603 15.8182 14.2731 15.4159 15.0936 14.6999C15.9141 13.9838 16.375 13.0126 16.375 12C16.375 10.9874 15.9141 10.0162 15.0936 9.30014C14.2731 8.58409 13.1603 8.18182 12 8.18182C10.8397 8.18182 9.72688 8.58409 8.90641 9.30014C8.08594 10.0162 7.625 10.9874 7.625 12C7.625 13.0126 8.08594 13.9838 8.90641 14.6999C9.72688 15.4159 10.8397 15.8182 12 15.8182Z" fill="#C6C6C6"/>
</svg>
