<svg width="24" height="24" viewBox="0 0 24 24" fill="none" xmlns="http://www.w3.org/2000/svg">
<path d="M4.5 4.5L19.5 19.5" stroke="#8E8E8E" stroke-linecap="round"/>
<path fill-rule="evenodd" clip-rule="evenodd" d="M6.40661 6.28038C4.92164 7.73278 4 9.75876 4 12C4 16.4183 7.58172 20 12 20C14.2412 20 16.2672 19.0784 17.7196 17.5934L17.0125 16.8862C15.7411 18.1903 13.9651 19 12 19C8.13401 19 5 15.866 5 12C5 10.0349 5.80974 8.25893 7.11377 6.98754L6.40661 6.28038ZM17.66 16.1196C18.5027 14.9637 19 13.5399 19 12C19 8.13401 15.866 5 12 5C10.4601 5 9.03626 5.49726 7.88042 6.33998L7.16574 5.62529C8.50861 4.60534 10.1836 4 12 4C16.4183 4 20 7.58172 20 12C20 13.8164 19.3947 15.4914 18.3747 16.8343L17.66 16.1196Z" fill="#8E8E8E"/>
<path fill-rule="evenodd" clip-rule="evenodd" d="M8.77394 8.64739C8.40085 9.72015 8.19361 10.8442 8.16713 11.9884C8.16695 11.9961 8.16695 12.0039 8.16713 12.0116C8.23467 14.9297 9.4778 17.7165 11.6494 19.8562C11.844 20.0479 12.1566 20.0479 12.3513 19.8562C13.7211 18.5064 14.7215 16.8992 15.2905 15.1639L14.4875 14.361C14.0482 15.9745 13.2025 17.489 12.0003 18.7826C10.2252 16.8726 9.22748 14.4807 9.16713 12C9.18827 11.1309 9.32447 10.2727 9.56885 9.4423L8.77394 8.64739ZM14.7319 13.1912C14.7897 12.7975 14.8238 12.3999 14.8335 12C14.7732 9.51933 13.7755 7.12744 12.0003 5.21744C11.1118 6.17346 10.4181 7.2502 9.93915 8.39839L9.18021 7.63944C9.76805 6.362 10.6004 5.17742 11.6494 4.14384C11.844 3.95205 12.1566 3.95205 12.3513 4.14384C14.5229 6.28352 15.766 9.07033 15.8335 11.9884C15.8337 11.9961 15.8337 12.0039 15.8335 12.0116C15.8176 12.7011 15.736 13.3832 15.592 14.0512L14.7319 13.1912Z" fill="#8E8E8E"/>
<path fill-rule="evenodd" clip-rule="evenodd" d="M11.6262 11.5H4.5C4.22386 11.5 4 11.7239 4 12C4 12.2761 4.22386 12.5 4.5 12.5H12.6262L11.6262 11.5ZM14.0404 12.5H19.5C19.7761 12.5 20 12.2761 20 12C20 11.7239 19.7761 11.5 19.5 11.5H13.0404L14.0404 12.5Z" fill="#8E8E8E"/>
</svg>
