<svg width="32" height="32" viewBox="0 0 32 32" fill="none" xmlns="http://www.w3.org/2000/svg">
<path d="M7.76758 26.8889C7.21529 26.8889 6.76758 26.4411 6.76758 25.8889V12.8717C6.76758 12.5562 6.91648 12.2592 7.16929 12.0704L15.8915 5.55781C16.2464 5.29285 16.7332 5.29285 17.0881 5.55781L25.8103 12.0704C26.0631 12.2592 26.212 12.5562 26.212 12.8717V25.8889C26.212 26.4411 25.7643 26.8889 25.212 26.8889H20.212C19.6597 26.8889 19.212 26.4411 19.212 25.8889V19.4197C19.212 18.8674 18.7643 18.4197 18.212 18.4197H14.7676C14.2153 18.4197 13.7676 18.8674 13.7676 19.4197V25.8889C13.7676 26.4411 13.3199 26.8889 12.7676 26.8889H7.76758Z" stroke="#C6C6C6" stroke-width="1.6"/>
</svg>
