<svg width="32" height="32" viewBox="0 0 32 32" fill="none" xmlns="http://www.w3.org/2000/svg">
<path d="M7.76733 26.8889C7.21505 26.8889 6.76733 26.4411 6.76733 25.8889V12.8717C6.76733 12.5562 6.91623 12.2592 7.16904 12.0704L15.8913 5.55781C16.2461 5.29285 16.733 5.29285 17.0878 5.55781L25.8101 12.0704C26.0629 12.2592 26.2118 12.5562 26.2118 12.8717V25.8889C26.2118 26.4411 25.7641 26.8889 25.2118 26.8889H20.2118C19.6595 26.8889 19.2118 26.4411 19.2118 25.8889V19.4197C19.2118 18.8674 18.7641 18.4197 18.2118 18.4197H14.7673C14.215 18.4197 13.7673 18.8674 13.7673 19.4197V25.8889C13.7673 26.4411 13.3196 26.8889 12.7673 26.8889H7.76733Z" fill="#234A7C" stroke="#234A7C" stroke-width="2"/>
</svg>
