<svg width="80" height="80" viewBox="0 0 80 80" fill="none" xmlns="http://www.w3.org/2000/svg">
<path d="M40.0041 34.9099C48.3241 26.5449 69.1291 41.1799 40.0041 59.9999C10.8791 41.1799 31.6841 26.5449 40.0041 34.9099Z" fill="#8E8E8E"/>
<path d="M43.5364 7.50039C42.5988 6.56303 41.3272 6.03645 40.0014 6.03645C38.6756 6.03645 37.404 6.56303 36.4664 7.50039L3.23139 40.7304C2.76262 41.1998 2.49953 41.8362 2.5 42.4997C2.50047 43.1631 2.76446 43.7991 3.23389 44.2679C3.70332 44.7367 4.33975 44.9997 5.00316 44.9993C5.66657 44.9988 6.30262 44.7348 6.77139 44.2654L10.0014 41.0354V67.5004C10.0014 69.4895 10.7916 71.3972 12.1981 72.8037C13.6046 74.2102 15.5123 75.0004 17.5014 75.0004H62.5014C64.4905 75.0004 66.3982 74.2102 67.8047 72.8037C69.2112 71.3972 70.0014 69.4895 70.0014 67.5004V41.0354L73.2314 44.2654C73.7002 44.7348 74.3362 44.9988 74.9996 44.9993C75.663 44.9997 76.2995 44.7367 76.7689 44.2679C77.2383 43.7991 77.5023 43.1631 77.5028 42.4997C77.5033 41.8362 77.2402 41.1998 76.7714 40.7304L65.0014 28.9654V12.5004C65.0014 11.8373 64.738 11.2015 64.2692 10.7326C63.8003 10.2638 63.1644 10.0004 62.5014 10.0004H57.5014C56.8384 10.0004 56.2025 10.2638 55.7336 10.7326C55.2648 11.2015 55.0014 11.8373 55.0014 12.5004V18.9654L43.5364 7.50039ZM65.0014 36.0354V67.5004C65.0014 68.1634 64.738 68.7993 64.2692 69.2682C63.8003 69.737 63.1644 70.0004 62.5014 70.0004H17.5014C16.8384 70.0004 16.2025 69.737 15.7336 69.2682C15.2648 68.7993 15.0014 68.1634 15.0014 67.5004V36.0354L40.0014 11.0354L65.0014 36.0354Z" fill="#8E8E8E"/>
</svg>
