<svg width="24" height="24" viewBox="0 0 24 24" fill="none" xmlns="http://www.w3.org/2000/svg">
<path d="M17.8333 9.50012H6.16667C5.24619 9.50012 4.5 10.382 4.5 11.4698V18.3638C4.5 19.4516 5.24619 20.3335 6.16667 20.3335H17.8333C18.7538 20.3335 19.5 19.4516 19.5 18.3638V11.4698C19.5 10.382 18.7538 9.50012 17.8333 9.50012Z" stroke="#555555" stroke-linecap="round" stroke-linejoin="round"/>
<path d="M7.83301 9.50008V6.90749C7.83301 6.04799 8.27199 5.2237 9.0534 4.61594C9.8348 4.00818 10.8946 3.66675 11.9997 3.66675C13.1047 3.66675 14.1646 4.00818 14.946 4.61594C15.7274 5.2237 16.1663 6.04799 16.1663 6.90749V9.50008" stroke="#555555" stroke-linecap="round" stroke-linejoin="round"/>
<circle cx="11.9997" cy="15.3335" r="1.66667" fill="#555555"/>
</svg>
