<svg width="24" height="24" viewBox="0 0 24 24" fill="none" xmlns="http://www.w3.org/2000/svg">
<path d="M6.75 9V6C6.75 5.00544 7.30312 4.05161 8.28769 3.34835C9.27226 2.64509 10.6076 2.25 12 2.25C13.3924 2.25 14.7277 2.64509 15.7123 3.34835C16.6969 4.05161 17.25 5.00544 17.25 6V9" stroke="#1B3960" stroke-width="1.6" stroke-linecap="round" stroke-linejoin="round"/>
<path fill-rule="evenodd" clip-rule="evenodd" d="M5 9.00024H19C20.1046 9.00024 21 10.0585 21 11.3639V19.6366C21 20.942 20.1046 22.0002 19 22.0002H5C3.89543 22.0002 3 20.942 3 19.6366V11.3639C3 10.0585 3.89543 9.00024 5 9.00024ZM11.9996 18.0003C13.1042 18.0003 13.9996 17.1049 13.9996 16.0003C13.9996 14.8958 13.1042 14.0003 11.9996 14.0003C10.895 14.0003 9.99961 14.8958 9.99961 16.0003C9.99961 17.1049 10.895 18.0003 11.9996 18.0003Z" fill="#1B3960"/>
</svg>
