<svg width="18" height="18" viewBox="0 0 18 18" fill="none" xmlns="http://www.w3.org/2000/svg">
<path d="M15 7.63636C15 12.4091 9 16.5 9 16.5C9 16.5 3 12.4091 3 7.63636C3 6.0089 3.63214 4.44809 4.75736 3.2973C5.88258 2.14651 7.4087 1.5 9 1.5C10.5913 1.5 12.1174 2.14651 13.2426 3.2973C14.3679 4.44809 15 6.0089 15 7.63636Z" stroke="#8E8E8E" stroke-width="1.5" stroke-linecap="round" stroke-linejoin="round"/>
<path d="M9 9C9.82843 9 10.5 8.32843 10.5 7.5C10.5 6.67157 9.82843 6 9 6C8.17157 6 7.5 6.67157 7.5 7.5C7.5 8.32843 8.17157 9 9 9Z" stroke="#8E8E8E" stroke-width="1.5" stroke-linecap="round" stroke-linejoin="round"/>
</svg>
