<svg width="18" height="18" viewBox="0 0 18 18" fill="none" xmlns="http://www.w3.org/2000/svg">
<path fill-rule="evenodd" clip-rule="evenodd" d="M9 16.5C9 16.5 15 12.4091 15 7.63636C15 6.0089 14.3679 4.44809 13.2426 3.2973C12.1174 2.14651 10.5913 1.5 9 1.5C7.4087 1.5 5.88258 2.14651 4.75736 3.2973C3.63214 4.44809 3 6.0089 3 7.63636C3 12.4091 9 16.5 9 16.5ZM10.5 7.5C10.5 8.32843 9.82843 9 9 9C8.17157 9 7.5 8.32843 7.5 7.5C7.5 6.67157 8.17157 6 9 6C9.82843 6 10.5 6.67157 10.5 7.5Z" fill="#D8D8D8"/>
</svg>
