<svg width="24" height="24" viewBox="0 0 24 24" fill="none" xmlns="http://www.w3.org/2000/svg">
<path d="M21.1616 17.4765V20.1862C21.1626 20.4377 21.1109 20.6867 21.01 20.9172C20.909 21.1477 20.7609 21.3546 20.5752 21.5247C20.3894 21.6947 20.1702 21.8242 19.9314 21.9048C19.6926 21.9854 19.4396 22.0153 19.1886 21.9927C16.4036 21.6907 13.7285 20.7409 11.3781 19.2197C9.1914 17.8329 7.33745 15.9827 5.94791 13.8003C4.41838 11.4439 3.46653 8.76107 3.16946 5.96915C3.14684 5.71938 3.17658 5.46764 3.25679 5.22996C3.337 4.99229 3.46592 4.77389 3.63534 4.58866C3.80475 4.40343 4.01096 4.25544 4.24083 4.15411C4.47069 4.05278 4.71918 4.00032 4.97048 4.00009H7.68558C8.1248 3.99577 8.55061 4.151 8.88363 4.43683C9.21666 4.72267 9.43418 5.11961 9.49565 5.55366C9.61025 6.42084 9.82277 7.27229 10.1292 8.09177C10.2509 8.41507 10.2773 8.76642 10.2051 9.1042C10.1329 9.44198 9.96524 9.75203 9.72191 9.99761L8.57251 11.1447C9.86088 13.406 11.7369 15.2784 14.0027 16.5642L15.1521 15.4171C15.3982 15.1742 15.7089 15.0069 16.0473 14.9348C16.3858 14.8628 16.7378 14.8891 17.0617 15.0106C17.8829 15.3164 18.736 15.5285 19.6049 15.6429C20.0445 15.7048 20.446 15.9258 20.733 16.2639C21.0201 16.6019 21.1726 17.0335 21.1616 17.4765Z" fill="#1B3960"/>
</svg>
