<svg width="24" height="24" viewBox="0 0 24 24" fill="none" xmlns="http://www.w3.org/2000/svg">
<path d="M21.1616 16.4765V19.1862C21.1626 19.4377 21.1109 19.6867 21.01 19.9172C20.909 20.1477 20.7609 20.3546 20.5752 20.5247C20.3894 20.6947 20.1702 20.8242 19.9314 20.9048C19.6926 20.9854 19.4396 21.0153 19.1886 20.9927C16.4036 20.6907 13.7285 19.7409 11.3781 18.2197C9.1914 16.8329 7.33745 14.9827 5.94791 12.8003C4.41838 10.4439 3.46653 7.76107 3.16946 4.96915C3.14684 4.71938 3.17658 4.46764 3.25679 4.22996C3.337 3.99229 3.46592 3.77389 3.63534 3.58866C3.80475 3.40343 4.01096 3.25544 4.24083 3.15411C4.47069 3.05278 4.71918 3.00032 4.97048 3.00009H7.68558C8.1248 2.99577 8.55061 3.151 8.88363 3.43683C9.21666 3.72267 9.43418 4.11961 9.49565 4.55366C9.61025 5.42084 9.82277 6.27229 10.1292 7.09177C10.2509 7.41507 10.2773 7.76642 10.2051 8.1042C10.1329 8.44198 9.96524 8.75203 9.72191 8.99761L8.57251 10.1447C9.86088 12.406 11.7369 14.2784 14.0027 15.5642L15.1521 14.4171C15.3982 14.1742 15.7089 14.0069 16.0473 13.9348C16.3858 13.8628 16.7378 13.8891 17.0617 14.0106C17.8829 14.3164 18.736 14.5285 19.6049 14.6429C20.0445 14.7048 20.446 14.9258 20.733 15.2639C21.0201 15.6019 21.1726 16.0335 21.1616 16.4765Z" fill="#C6C6C6"/>
</svg>
